<svg width="40" height="40" viewBox="0 0 40 40" fill="none" xmlns="http://www.w3.org/2000/svg">
<circle opacity="0.1" cx="20" cy="20" r="20" fill="#5718FF"/>
<path d="M26.9304 28.6199C26.5104 23.5852 20.3814 21.2253 16.7722 24.8728C15.8071 25.8488 15.1708 27.1941 15.0496 28.6199H26.9304ZM25.3523 20.4207C24.8819 21.2386 24.1922 21.9136 23.3601 22.3611C24.5211 22.7743 25.5451 23.487 26.3435 24.4041H29.9548C29.6883 22.0931 27.7194 20.3423 25.3523 20.4207ZM16.6492 20.4207C14.2826 20.3429 12.3141 22.0944 12.0476 24.4041H15.6355C16.4366 23.4818 17.4657 22.7708 18.6316 22.3562C17.8027 21.9107 17.1174 21.2355 16.6492 20.4207ZM20.988 13.989C18.2419 13.9901 16.2784 16.8774 17.5007 19.5398C18.8815 22.5437 23.118 22.541 24.4988 19.5398C25.6823 16.967 23.9018 14.0249 20.988 13.989ZM27.5291 14.2205C26.5822 13.2633 25.1117 13.1112 23.9949 13.8289C25.6081 15.0368 26.3696 17.1126 25.8757 19.115C28.1941 18.8281 29.211 15.9194 27.5291 14.2205ZM18.0076 13.8279C16.1496 12.6273 13.6406 13.9606 13.6404 16.2605C13.6404 17.718 14.7122 18.9326 16.1238 19.1131C15.6311 17.1109 16.3944 15.0352 18.0076 13.8279ZM31.1433 24.9812C31.1433 25.3006 30.8847 25.5602 30.5642 25.5603H27.1638C27.7587 26.6096 28.1335 27.9317 28.1335 29.199C28.1335 29.5185 27.8751 29.7781 27.5544 29.7781L14.4158 29.7752H14.4089C14.2429 29.7636 14.1054 29.6931 14.0105 29.5769C13.9358 29.4855 13.8926 29.3705 13.8777 29.243H13.8679V29.1433C13.8679 27.8383 14.2144 26.6162 14.8142 25.5613H11.4353C11.2647 25.5613 11.1188 25.4982 11.0154 25.3836C10.9133 25.2704 10.8595 25.1151 10.8562 24.9402V24.7215C10.897 22.5383 12.3459 20.5119 14.3572 19.6795C10.9956 17.573 12.4527 12.2224 16.4822 12.2224C17.4543 12.2225 18.3769 12.578 19.0955 13.2068C20.3072 12.7074 21.6923 12.7074 22.9041 13.2068C25.4677 10.9618 29.518 12.7955 29.5183 16.2586C29.5183 17.6745 28.7842 18.9504 27.6394 19.6775C29.76 20.5462 31.1127 22.5777 31.1433 24.9803V24.9812Z" fill="#5718FF" stroke="#5718FF" stroke-width="0.2"/>
<path d="M22.6077 18.5012C22.7498 18.466 22.899 18.4907 23.0237 18.5549C23.1484 18.6191 23.2552 18.7264 23.3088 18.8625C23.3632 19.001 23.3592 19.1626 23.2747 19.3264C22.3196 21.1789 19.6818 21.1788 18.7258 19.3264C18.6416 19.1625 18.6382 19.0009 18.6926 18.8625C18.7463 18.7264 18.8532 18.619 18.9778 18.5549C19.1022 18.4909 19.2512 18.4668 19.3928 18.5021C19.537 18.5382 19.6669 18.6344 19.7512 18.798C20.2786 19.8154 21.7213 19.8176 22.2473 18.798C22.3324 18.6341 22.4629 18.5371 22.6077 18.5012Z" fill="#5718FF" stroke="#5718FF" stroke-width="0.2"/>
</svg>
