<svg width="40" height="40" viewBox="0 0 40 40" fill="none" xmlns="http://www.w3.org/2000/svg">
<circle opacity="0.1" cx="20" cy="20" r="20" fill="#FF3366"/>
<g clip-path="url(#clip0_5530_2740)">
<path d="M22.625 10.9004C23.9713 10.9004 25.2046 11.1311 26.1055 11.5342C26.9998 11.9344 27.6006 12.5219 27.6006 13.25C27.6006 13.9781 26.9998 14.5656 26.1055 14.9658C25.2046 15.3689 23.9713 15.5996 22.625 15.5996C21.2789 15.5996 20.0453 15.369 19.1445 14.9658C18.2503 14.5656 17.6504 13.9781 17.6504 13.25C17.6504 12.5219 18.2503 11.9344 19.1445 11.5342C20.0453 11.131 21.2789 10.9004 22.625 10.9004ZM22.625 11.8506C21.486 11.8506 20.467 12.0389 19.7363 12.3164C19.3706 12.4553 19.0813 12.6149 18.8857 12.7803C18.6885 12.9472 18.6006 13.1081 18.6006 13.25C18.6006 13.3919 18.6885 13.5528 18.8857 13.7197C19.0813 13.8851 19.3706 14.0447 19.7363 14.1836C20.467 14.4611 21.486 14.6494 22.625 14.6494C23.7639 14.6494 24.7829 14.4611 25.5137 14.1836C25.8795 14.0447 26.1687 13.8851 26.3643 13.7197C26.5616 13.5528 26.6504 13.3919 26.6504 13.25C26.6504 13.1081 26.5616 12.9472 26.3643 12.7803C26.1687 12.6149 25.8795 12.4553 25.5137 12.3164C24.7829 12.0389 23.7639 11.8506 22.625 11.8506Z" fill="#FF3366" stroke="#FF3366" stroke-width="0.2"/>
<path d="M18.6006 13.1504V15.5C18.6006 15.6419 18.6885 15.8028 18.8857 15.9697C19.0813 16.1351 19.3706 16.2947 19.7363 16.4336C20.467 16.7111 21.486 16.8994 22.625 16.8994C23.7639 16.8994 24.7829 16.7111 25.5137 16.4336C25.8795 16.2947 26.1687 16.1351 26.3643 15.9697C26.5616 15.8028 26.6504 15.6419 26.6504 15.5V13.1504H27.6006V15.5C27.6006 16.2281 26.9998 16.8156 26.1055 17.2158C25.2046 17.6189 23.9713 17.8496 22.625 17.8496C21.2789 17.8496 20.0453 17.619 19.1445 17.2158C18.2503 16.8156 17.6504 16.2281 17.6504 15.5V13.1504H18.6006Z" fill="#FF3366" stroke="#FF3366" stroke-width="0.2"/>
<path d="M27.6006 15.4003V17.7499C27.6006 18.478 26.9998 19.0655 26.1055 19.4658C25.2046 19.8689 23.9713 20.0995 22.625 20.0995C22.2407 20.0995 21.8653 20.081 21.5049 20.0449L21.501 19.9453L21.415 19.9472C21.4059 19.5698 21.3994 19.3145 21.3994 19.2499C21.3994 19.2341 21.3987 19.217 21.3965 19.2001L21.3799 19.0732L21.5068 19.0878C21.8616 19.1282 22.2363 19.1494 22.625 19.1494C23.7639 19.1493 24.7829 18.9611 25.5137 18.6835C25.8795 18.5446 26.1687 18.3851 26.3643 18.2197C26.5616 18.0527 26.6504 17.8919 26.6504 17.7499V15.4003H27.6006ZM18.6006 15.4003V17.7499C18.6006 17.7664 18.6013 17.7828 18.6035 17.7997L18.6201 17.9267L18.4932 17.912C18.2532 17.8849 18.003 17.8664 17.7461 17.8574L17.7383 17.8564L17.7295 17.8544L17.6504 17.8388V15.4003H18.6006Z" fill="#FF3366" stroke="#FF3366" stroke-width="0.2"/>
<path d="M27.6006 17.6505V20.0001C27.6006 20.7281 26.9998 21.3156 26.1055 21.7159C25.2046 22.119 23.9713 22.3496 22.625 22.3497C22.2612 22.3497 21.9053 22.3335 21.5625 22.3008L21.3096 22.2764L21.4707 22.1514C21.4642 21.9101 21.458 21.6738 21.4521 21.4464L21.4492 21.3321L21.5635 21.3438C21.9008 21.38 22.2574 21.3995 22.625 21.3995C23.7639 21.3994 24.7829 21.2112 25.5137 20.9337C25.8795 20.7947 26.1687 20.6352 26.3643 20.4698C26.5616 20.3028 26.6504 20.142 26.6504 20.0001V17.6505H27.6006ZM18.6006 17.6505V17.9239L18.4893 17.9112C18.2497 17.8847 18.0015 17.8665 17.7461 17.8575L17.6504 17.8536V17.6505H18.6006Z" fill="#FF3366" stroke="#FF3366" stroke-width="0.2"/>
<path d="M17.3748 17.6504C18.7208 17.6504 19.9544 17.8811 20.8552 18.2842C21.7495 18.6844 22.3503 19.2719 22.3503 20C22.3503 20.7281 21.7495 21.3156 20.8552 21.7158C19.9544 22.1189 18.7208 22.3496 17.3748 22.3496C16.0284 22.3496 14.7951 22.119 13.8943 21.7158C13 21.3156 12.4001 20.7281 12.4001 20C12.4001 19.2719 13 18.6844 13.8943 18.2842C14.7951 17.881 16.0284 17.6504 17.3748 17.6504ZM17.3748 18.6006C16.236 18.6006 15.2168 18.7889 14.4861 19.0664C14.1205 19.2053 13.832 19.365 13.6365 19.5303C13.439 19.6973 13.3503 19.858 13.3503 20C13.3503 20.142 13.439 20.3027 13.6365 20.4697C13.832 20.635 14.1205 20.7947 14.4861 20.9336C15.2168 21.2111 16.236 21.3994 17.3748 21.3994C18.5136 21.3994 19.5328 21.2111 20.2634 20.9336C20.6292 20.7947 20.9185 20.6351 21.114 20.4697C21.3113 20.3028 21.4001 20.142 21.4001 20C21.4001 19.858 21.3113 19.6972 21.114 19.5303C20.9185 19.3649 20.6292 19.2053 20.2634 19.0664C19.5328 18.7889 18.5136 18.6006 17.3748 18.6006Z" fill="#FF3366" stroke="#FF3366" stroke-width="0.2"/>
<path d="M13.3503 19.9004V22.25C13.3503 22.392 13.439 22.5527 13.6365 22.7197C13.832 22.885 14.1205 23.0447 14.4861 23.1836C15.2168 23.4611 16.236 23.6494 17.3748 23.6494C18.5136 23.6494 19.5328 23.4611 20.2634 23.1836C20.6292 23.0447 20.9185 22.8851 21.114 22.7197C21.3113 22.5528 21.4001 22.392 21.4001 22.25V19.9004H22.3503V22.25C22.3503 22.9781 21.7495 23.5656 20.8552 23.9658C19.9544 24.3689 18.7208 24.5996 17.3748 24.5996C16.0284 24.5996 14.7951 24.369 13.8943 23.9658C13 23.5656 12.4001 22.9781 12.4001 22.25V19.9004H13.3503Z" fill="#FF3366" stroke="#FF3366" stroke-width="0.2"/>
<path d="M13.3503 22.1504V24.5C13.3503 24.642 13.439 24.8027 13.6365 24.9697C13.832 25.135 14.1205 25.2947 14.4861 25.4336C15.2168 25.7111 16.236 25.8994 17.3748 25.8994C18.5136 25.8994 19.5328 25.7111 20.2634 25.4336C20.6292 25.2947 20.9185 25.1351 21.114 24.9697C21.3113 24.8028 21.4001 24.642 21.4001 24.5V22.1504H22.3503V24.5C22.3503 25.2281 21.7495 25.8156 20.8552 26.2158C19.9544 26.6189 18.7208 26.8496 17.3748 26.8496C16.0284 26.8496 14.7951 26.619 13.8943 26.2158C13 25.8156 12.4001 25.2281 12.4001 24.5V22.1504H13.3503Z" fill="#FF3366" stroke="#FF3366" stroke-width="0.2"/>
<path d="M13.3503 24.4004V26.75C13.3503 26.892 13.439 27.0527 13.6365 27.2197C13.832 27.385 14.1205 27.5447 14.4861 27.6836C15.2168 27.9611 16.236 28.1494 17.3748 28.1494C18.5136 28.1494 19.5328 27.9611 20.2634 27.6836C20.6292 27.5447 20.9185 27.3851 21.114 27.2197C21.3113 27.0528 21.4001 26.892 21.4001 26.75V24.4004H22.3503V26.75C22.3503 27.4781 21.7495 28.0656 20.8552 28.4658C19.9544 28.8689 18.7208 29.0996 17.3748 29.0996C16.0284 29.0996 14.7951 28.869 13.8943 28.4658C13 28.0656 12.4001 27.4781 12.4001 26.75V24.4004H13.3503Z" fill="#FF3366" stroke="#FF3366" stroke-width="0.2"/>
<path d="M27.6006 19.9004V22.25C27.6006 22.9781 26.9998 23.5656 26.1055 23.9659C25.2046 24.3689 23.9713 24.5996 22.625 24.5996C22.2825 24.5996 21.9474 24.5848 21.623 24.5557L21.5625 24.5508L21.5391 24.4942L21.5322 24.4776V24.459C21.5259 24.2153 21.519 23.961 21.5127 23.7022L21.5098 23.5889L21.6221 23.6006C21.9422 23.6326 22.2782 23.6494 22.625 23.6494C23.7639 23.6494 24.7828 23.4612 25.5137 23.1836C25.8795 23.0447 26.1687 22.8852 26.3643 22.7198C26.5616 22.5528 26.6504 22.392 26.6504 22.25V19.9004H27.6006Z" fill="#FF3366" stroke="#FF3366" stroke-width="0.2"/>
<path d="M27.6003 22.1504V24.5C27.6003 25.228 27.0003 25.8156 26.1062 26.2158C25.2053 26.619 23.9713 26.8496 22.6248 26.8496C22.3043 26.8496 21.9895 26.8363 21.6853 26.8115L21.6208 26.8066L21.5994 26.7461L21.5935 26.7305V26.7148C21.5907 26.6183 21.5835 26.345 21.573 25.958L21.5691 25.8457L21.6824 25.8555C21.9843 25.884 22.2996 25.8994 22.6248 25.8994C23.7637 25.8994 24.7826 25.7111 25.5134 25.4336C25.8793 25.2947 26.1684 25.1351 26.364 24.9697C26.5614 24.8027 26.6501 24.6419 26.6501 24.5V22.1504H27.6003Z" fill="#FF3366" stroke="#FF3366" stroke-width="0.2"/>
</g>
<defs>
<clipPath id="clip0_5530_2740">
<rect width="18" height="18" fill="white" transform="translate(11 11)"/>
</clipPath>
</defs>
</svg>
