<svg width="40" height="40" viewBox="0 0 40 40" fill="none" xmlns="http://www.w3.org/2000/svg">
<circle opacity="0.1" cx="20" cy="20" r="20" fill="#DF18FF"/>
<g clip-path="url(#clip0_5530_2780)">
<path d="M22.9977 18.6818C22.9977 18.8169 23.0328 19.0913 23.1178 19.382C23.2032 19.6741 23.3346 19.9667 23.5182 20.1505L23.6578 20.2902V20.4787C23.6578 21.3877 23.324 21.9833 22.8395 22.4054C22.3612 22.822 21.7391 23.0664 21.1735 23.2853C20.8334 23.4364 20.52 23.5391 20.1959 23.7189L20.109 23.7677L19.694 23.0207L19.6432 22.9289L19.736 22.882C20.1072 22.6959 20.4771 22.5482 20.8434 22.4015C21.4329 22.1618 21.8843 21.9657 22.1998 21.6984C22.5009 21.4433 22.68 21.1207 22.7203 20.6154C22.4856 20.3131 22.3318 19.94 22.233 19.6076C22.1352 19.2781 22.0886 18.983 22.068 18.8263C21.6737 18.2107 21.4774 17.5763 21.5846 17.1027C21.4941 16.7472 21.4406 16.2789 21.5006 15.8214C21.561 15.3615 21.7373 14.902 22.1158 14.5871C22.3499 13.9121 22.8423 13.4248 23.4772 13.1261L23.4811 13.1252L23.6696 13.0529C24.5699 12.7425 25.7245 12.8104 26.7838 13.2472L27.0094 13.3468L27.0153 13.3488V13.3498L27.3453 13.5314L27.4205 13.5734L27.3903 13.6544L27.2809 13.9474L27.2799 13.9464C27.1112 14.4211 27.244 14.7922 27.4264 15.2306H27.4254C27.6452 15.7441 27.8763 16.3912 27.5455 17.1886C27.6116 17.6206 27.4547 18.2459 27.0621 18.8605C27.0416 19.0173 26.996 19.3129 26.8981 19.6427C26.7991 19.9758 26.6444 20.3499 26.4088 20.6525C26.4323 21.1563 26.6113 21.4784 26.9166 21.7336C27.2366 22.0008 27.6966 22.1971 28.2858 22.4367C28.8884 22.6742 29.595 22.9555 30.1471 23.465C30.7045 23.9795 31.1002 24.7217 31.1002 25.8664V26.3332H23.567V25.3996H30.151C30.0642 24.7553 29.8034 24.3419 29.4371 24.0373C29.044 23.7104 28.5282 23.5045 27.9567 23.2834C27.3911 23.0645 26.7689 22.8201 26.2906 22.4035C25.8063 21.9814 25.4733 21.3855 25.4733 20.4767V20.2882L25.6119 20.1496C25.7947 19.9668 25.9174 19.6754 25.9987 19.382C26.0791 19.0915 26.115 18.8132 26.1334 18.6671V18.5392L26.15 18.5138L26.2213 18.4093C26.418 18.0873 26.5244 17.8123 26.5768 17.6115C26.603 17.5111 26.6157 17.4302 26.6198 17.3722C26.6218 17.3431 26.621 17.3208 26.6198 17.3058C26.6183 17.2878 26.6163 17.2883 26.6207 17.297V17.2961L26.5475 17.1496L26.528 17.1095L26.5446 17.0675L26.6168 16.8849L26.6217 16.8742L26.6676 16.7814C26.8711 16.3243 26.7172 15.9778 26.5426 15.4884V15.4875C26.3664 15.0656 26.1854 14.5907 26.2711 13.9796C25.4298 13.6482 24.5397 13.6259 23.8932 13.9318L23.8893 13.9337C23.4065 14.1408 23.1322 14.4823 22.9928 14.9689L22.9567 15.1134L22.9479 15.1505L22.9156 15.172L22.8063 15.2433C22.6046 15.3833 22.4913 15.6677 22.4557 16.006C22.4205 16.3403 22.4645 16.7019 22.5514 16.963L22.5543 16.9699V16.9709L22.5905 17.1173L22.6002 17.1535L22.5836 17.1867L22.5143 17.3234C22.5113 17.3353 22.508 17.3677 22.5123 17.424C22.5169 17.4831 22.5301 17.562 22.5582 17.6593C22.6005 17.8057 22.6757 17.992 22.8014 18.2121L22.944 18.4435L22.9508 18.4533H22.9498L22.9869 18.5265L22.9977 18.548V18.6818Z" fill="#DF18FF" stroke="#DF18FF" stroke-width="0.2"/>
<path d="M16.2236 13.5212C16.8799 13.5212 17.4001 13.6618 17.8145 13.906C18.2288 14.1503 18.532 14.4945 18.7588 14.8914C19.0967 15.4828 19.2696 16.1986 19.3965 16.8884L19.5127 17.5642V17.5652C19.6045 18.1534 19.6949 18.7138 19.8477 19.1814C20.0002 19.648 20.2096 20.0058 20.5273 20.2078L20.8555 20.3894L20.9502 20.4421L20.8906 20.532L20.6699 20.8621C20.153 21.6366 19.0063 22.3593 17.8184 22.7058C18.2264 23.8936 19.2109 24.2405 20.2891 24.6355H20.29C20.9098 24.8543 21.5973 25.0983 22.127 25.5476C22.6634 26.0027 23.0332 26.6634 23.0332 27.7V28.1667H8.90039V27.7C8.9004 26.6633 9.26994 26.0027 9.81152 25.5476C10.3457 25.0988 11.0412 24.8549 11.6797 24.6365L12.0889 24.4841C13.0004 24.1322 13.7946 23.7126 14.1504 22.7058C12.9632 22.3591 11.8166 21.6371 11.3008 20.863L11.0811 20.533L11.0205 20.4431L11.1152 20.3904L11.4395 20.2107L11.5596 20.1228C11.8224 19.9064 11.9727 19.6081 12.0615 19.2488C12.1639 18.8345 12.1826 18.3499 12.2012 17.8337C12.2195 17.1782 12.2373 16.4262 12.4971 15.7791C12.7584 15.1281 13.2623 14.5871 14.2295 14.3376C14.5379 14.032 15.1461 13.5213 16.2236 13.5212ZM16.2217 14.4519C15.4196 14.4519 15.0407 14.8311 14.7891 15.0828L14.6992 15.1726L14.6768 15.1804L14.5674 15.2166L14.5566 15.2205V15.2195C14.2282 15.2905 13.9811 15.4006 13.7939 15.5437C13.6076 15.6862 13.4757 15.8659 13.3809 16.0837C13.1885 16.5257 13.1504 17.1197 13.1318 17.8748V17.8757C13.1139 18.3687 13.0958 18.9007 12.9834 19.3972C12.8778 19.8638 12.6851 20.3036 12.3291 20.6589C12.8802 21.2061 13.8787 21.7454 14.8105 21.9177H14.8115L15.1787 21.991L15.2764 22.0105L15.2568 22.1082L15.1846 22.4753L15.1836 22.4773C14.9583 23.491 14.477 24.1354 13.8857 24.5847C13.4457 24.919 12.9458 25.1438 12.4541 25.3357L11.9678 25.5203C11.4123 25.7242 10.924 25.8937 10.5527 26.1589C10.2137 26.4011 9.97508 26.7232 9.8877 27.2332H22.0781C21.9907 26.7403 21.7532 26.418 21.4141 26.1716C21.1355 25.9693 20.7902 25.8182 20.4014 25.6697L19.999 25.5203C19.3608 25.283 18.6578 25.0305 18.0664 24.5847C17.4704 24.1353 16.9888 23.491 16.7822 22.4763V22.4753L16.709 22.1082L16.6895 22.0105L16.7881 21.991L17.1553 21.9177H17.1562L17.3389 21.8796C18.2175 21.6745 19.1239 21.1682 19.6387 20.656C19.3147 20.3019 19.1061 19.8555 18.958 19.3679C18.7998 18.847 18.7065 18.2718 18.6152 17.7048V17.7039C18.4316 16.6557 18.2597 15.8421 17.9189 15.2888C17.7505 15.0155 17.542 14.8086 17.2715 14.6687C17 14.5284 16.6593 14.4519 16.2217 14.4519Z" fill="#DF18FF" stroke="#DF18FF" stroke-width="0.2"/>
</g>
<defs>
<clipPath id="clip0_5530_2780">
<rect width="22" height="22" fill="white" transform="translate(9 9)"/>
</clipPath>
</defs>
</svg>
